# xmcd
# 
# Track frame offsets:
#     182
#     21692
#     39172
#     58262
#     76660
#     92157
#     114230
#     130005
#     153317
#     173032
# 
# Disc length: 2556
# 
# Revision: 3
# Processed by: cddbd v1.5.2PL0 Copyright (c) Steve Scherf et al.
# Submitted via: fre:ac v1.0.17
# 
DISCID=7309fa0a
DTITLE=Indra - Temptation
DYEAR=1991
DGENRE=Pop
TTITLE0=Temptation
TTITLE1=Let's Go Crazy
TTITLE2=Misery
TTITLE3=Tell Me
TTITLE4=Never Wanna Stop
TTITLE5=Take It From Top
TTITLE6=City Nights
TTITLE7=Kissing In The Moonlight
TTITLE8=If You Stop
TTITLE9=Temptation (Beatboxking's Rave Mix)
EXTD=
EXTT0=
EXTT1=
EXTT2=
EXTT3=
EXTT4=
EXTT5=
EXTT6=
EXTT7=
EXTT8=
EXTT9=
PLAYORDER=
